# xmcd
#
# Track frame offsets:
#	150
#	16357
#	27542
#	43073
#	58068
#	76879
#	88824
#	101605
#	115704
#	133508
#	146529
#	161564
#	173286
#	194484
#	207084
#	226639
#	241373
#	253053
#	267486
#	283487
#	295313
#	312452
#	325386
#	339296
#
# Disc length: 4695 seconds
#
# Revision: 0
# Processed by: cddbd v1.5.2PL0 Copyright (c) Steve Scherf et al.
# Submitted via: audiograbber 1.82.01
#
DISCID=60125518
DTITLE=Country - All Times
DYEAR=2002
DGENRE=Country
TTITLE0=Two Cowboys - Everybody Gonfi-Gon
TTITLE1=Alan Jackson - Chattahoochee
TTITLE2=The Groove Grass Boys - Macarena 
TTITLE3=Brooks and Dunn - Boot Scootin' Boogie
TTITLE4=Jimmy Buffet  - Margaritaville 
TTITLE5=Dolly Parton - Jolene 
TTITLE6=Johnny Cash and Martin Delray - Get Rhythm
TTITLE7=Sammy' Saloon - Country Guitar No. 1
TTITLE8=Rednex - Wish You Were Here
TTITLE9=Kenny Rogers - Ruby Don't Take Your Love To Town
TTITLE10=Don Williams - I Recall A Gypsy Woman
TTITLE11=The Mavericks - Hay Good Lookin' 
TTITLE12=The Allman Brothers Band - Ramblin' Man
TTITLE13=Mark Chesnutt and George Jones - Talking To Hank
TTITLE14=Kris Kristofferson - Me And Bobby Mc Gee 
TTITLE15=Olivia Newton John - Banks of the Ohio
TTITLE16=Johnny Cash - Ring Of Fire
TTITLE17=Rednex - Cotton Eye Joe
TTITLE18=Joe South - Games People Play
TTITLE19=Tennessee Ernie Ford - Sixteen Tons
TTITLE20=Kimber Clayton - Jose Cuervo 
TTITLE21=Travis Tritt feat. Marty Stuart  - A Hundred Years From Now
TTITLE22=Scooter Lee - High Test Love
TTITLE23=The Shadows - Apache
EXTD=
EXTT0=
EXTT1=
EXTT2=
EXTT3=
EXTT4=
EXTT5=
EXTT6=
EXTT7=
EXTT8=
EXTT9=
EXTT10=
EXTT11=
EXTT12=
EXTT13=
EXTT14=
EXTT15=
EXTT16=
EXTT17=
EXTT18=
EXTT19=
EXTT20=
EXTT21=
EXTT22=
EXTT23=
PLAYORDER=
